# Blender v2.91.0 OBJ File: 'CornellBox.blend'
# www.blender.org
o Cube_Cube.001
v -0.975000 0.975000 -0.975000
v -0.975000 0.975000 0.975000
v 0.975000 0.975000 -0.975000
v 0.975000 0.975000 0.975000
v -1.000000 -1.000000 -1.000000
v -1.000000 -1.000000 1.000000
v -1.000000 1.000000 -1.000000
v -1.000000 1.000000 1.000000
v 1.000000 -1.000000 -1.000000
v 1.000000 -1.000000 1.000000
v 1.000000 1.000000 -1.000000
v 1.000000 1.000000 1.000000
v -0.975000 -1.000000 -0.975000
v -0.975000 -1.000000 0.975000
v 0.975000 -1.000000 -0.975000
v 0.975000 -1.000000 0.975000
vt 0.250000 0.750000
vt 0.000000 0.750000
vt 0.000000 0.500000
vt 0.250000 0.500000
vt 0.500000 0.750000
vt 0.500000 1.000000
vt 0.250000 1.000000
vt 0.250000 0.750000
vt 0.500000 0.500000
vt 0.750000 0.500000
vt 0.750000 0.750000
vt 0.500000 0.750000
vt 1.000000 0.500000
vt 1.000000 0.750000
vt 0.250000 -0.000000
vt 0.250000 0.250000
vt 0.000000 0.250000
vt 0.000000 -0.000000
vt 0.250000 0.500000
vt 0.500000 0.250000
vt 0.500000 0.500000
vt 0.750000 0.000000
vt 0.750000 0.250000
vt 0.500000 0.000000
vt 1.000000 0.000000
vt 1.000000 0.250000
vt 0.750000 0.760000
vt 0.500000 0.760000
vt 0.250000 0.760000
vt 0.000000 0.760000
vt 0.750000 0.750000
vt 0.750000 0.760000
vt 1.000000 0.760000
vt 1.000000 0.750000
vn -1.0000 0.0000 0.0000
vn 0.0000 1.0000 0.0000
vn 1.0000 0.0000 0.0000
vn 0.0000 0.0000 -1.0000
vn 0.0000 0.0000 1.0000
vn 0.0000 -1.0000 0.0000
s off
f 5/1/1 6/2/1 8/3/1 7/4/1
f 7/5/2 8/6/2 12/7/2 11/8/2
f 11/9/3 12/10/3 10/11/3 9/12/3
f 7/4/4 11/9/4 9/12/4 5/1/4
f 12/10/5 8/13/5 6/14/5 10/11/5
f 13/15/3 1/16/3 2/17/3 14/18/3
f 2/19/6 1/16/6 3/20/6 4/21/6
f 16/22/1 4/23/1 3/20/1 15/24/1
f 15/24/5 3/20/5 1/16/5 13/15/5
f 14/25/4 2/26/4 4/23/4 16/22/4
f 9/12/6 10/11/6 16/27/6 15/28/6
f 6/2/6 5/1/6 13/29/6 14/30/6
f 16/31/6 10/32/6 6/33/6 14/34/6
f 13/29/6 5/1/6 9/12/6 15/28/6
